<svg width="41" height="41" viewBox="0 0 41 41" fill="none" xmlns="http://www.w3.org/2000/svg">
<rect x="0.816528" y="0.99707" width="39" height="39" rx="19.5" stroke="white"/>
<path d="M11.0848 25.4691C10.9782 25.4691 10.8875 25.4317 10.8128 25.3571C10.7382 25.2824 10.7008 25.1917 10.7008 25.0851V21.9651H7.62884C7.52217 21.9651 7.43151 21.9277 7.35684 21.8531C7.28217 21.7784 7.24484 21.6877 7.24484 21.5811V20.7331C7.24484 20.6157 7.28217 20.5251 7.35684 20.4611C7.43151 20.3864 7.52217 20.3491 7.62884 20.3491H10.7008V17.3091C10.7008 17.2024 10.7382 17.1117 10.8128 17.0371C10.8875 16.9624 10.9782 16.9251 11.0848 16.9251H12.0128C12.1302 16.9251 12.2208 16.9624 12.2848 17.0371C12.3595 17.1117 12.3968 17.2024 12.3968 17.3091V20.3491H15.4688C15.5755 20.3491 15.6662 20.3864 15.7408 20.4611C15.8155 20.5251 15.8528 20.6157 15.8528 20.7331V21.5811C15.8528 21.6877 15.8155 21.7784 15.7408 21.8531C15.6662 21.9277 15.5755 21.9651 15.4688 21.9651H12.3968V25.0851C12.3968 25.1917 12.3595 25.2824 12.2848 25.3571C12.2208 25.4317 12.1302 25.4691 12.0128 25.4691H11.0848ZM20.522 25.9971C20.4046 25.9971 20.3086 25.9597 20.234 25.8851C20.17 25.8104 20.138 25.7197 20.138 25.6131V17.3251L17.706 19.1971C17.61 19.2611 17.514 19.2877 17.418 19.2771C17.322 19.2557 17.2366 19.1971 17.162 19.1011L16.49 18.2371C16.426 18.1411 16.3993 18.0397 16.41 17.9331C16.4313 17.8264 16.49 17.7411 16.586 17.6771L20.17 14.9091C20.234 14.8557 20.298 14.8237 20.362 14.8131C20.426 14.8024 20.4953 14.7971 20.57 14.7971H21.978C22.0846 14.7971 22.1753 14.8344 22.25 14.9091C22.3246 14.9837 22.362 15.0744 22.362 15.1811V25.6131C22.362 25.7197 22.3246 25.8104 22.25 25.8851C22.1753 25.9597 22.0846 25.9971 21.978 25.9971H20.522ZM28.7442 26.1571C28.0402 26.1571 27.4109 26.0717 26.8562 25.9011C26.3015 25.7304 25.8322 25.4904 25.4482 25.1811C25.0749 24.8717 24.7869 24.5091 24.5842 24.0931C24.3922 23.6771 24.2962 23.2131 24.2962 22.7011C24.2962 22.0824 24.4455 21.5491 24.7442 21.1011C25.0535 20.6424 25.4535 20.2904 25.9442 20.0451C25.5495 19.7997 25.2402 19.4851 25.0162 19.1011C24.8029 18.7171 24.6962 18.2691 24.6962 17.7571C24.6962 17.1384 24.8509 16.5997 25.1602 16.1411C25.4802 15.6717 25.9389 15.3037 26.5362 15.0371C27.1442 14.7704 27.8802 14.6371 28.7442 14.6371C29.6082 14.6371 30.3389 14.7704 30.9362 15.0371C31.5335 15.2931 31.9869 15.6557 32.2962 16.1251C32.6055 16.5837 32.7602 17.1224 32.7602 17.7411C32.7602 18.2531 32.6535 18.7011 32.4402 19.0851C32.2269 19.4691 31.9282 19.7891 31.5442 20.0451C32.0455 20.2797 32.4455 20.6317 32.7442 21.1011C33.0429 21.5597 33.1922 22.0984 33.1922 22.7171C33.1922 23.3891 33.0162 23.9864 32.6642 24.5091C32.3229 25.0211 31.8162 25.4264 31.1442 25.7251C30.4829 26.0131 29.6829 26.1571 28.7442 26.1571ZM28.7442 24.4931C29.1602 24.4931 29.5335 24.4237 29.8642 24.2851C30.2055 24.1357 30.4722 23.9277 30.6642 23.6611C30.8669 23.3944 30.9682 23.0797 30.9682 22.7171C30.9682 22.3437 30.8669 22.0291 30.6642 21.7731C30.4722 21.5064 30.2055 21.3037 29.8642 21.1651C29.5335 21.0157 29.1602 20.9411 28.7442 20.9411C28.3282 20.9411 27.9495 21.0157 27.6082 21.1651C27.2775 21.3037 27.0109 21.5064 26.8082 21.7731C26.6162 22.0291 26.5202 22.3437 26.5202 22.7171C26.5202 23.0797 26.6162 23.3944 26.8082 23.6611C27.0109 23.9277 27.2775 24.1357 27.6082 24.2851C27.9495 24.4237 28.3282 24.4931 28.7442 24.4931ZM28.7442 19.3571C29.0962 19.3464 29.4162 19.2771 29.7042 19.1491C30.0029 19.0211 30.2375 18.8504 30.4082 18.6371C30.5895 18.4131 30.6802 18.1464 30.6802 17.8371C30.6802 17.5277 30.5949 17.2611 30.4242 17.0371C30.2642 16.8024 30.0349 16.6211 29.7362 16.4931C29.4482 16.3651 29.1175 16.3011 28.7442 16.3011C28.3709 16.3011 28.0349 16.3651 27.7362 16.4931C27.4482 16.6211 27.2189 16.8024 27.0482 17.0371C26.8882 17.2611 26.8082 17.5277 26.8082 17.8371C26.8082 18.1464 26.8882 18.4131 27.0482 18.6371C27.2189 18.8611 27.4482 19.0371 27.7362 19.1651C28.0349 19.2931 28.3709 19.3571 28.7442 19.3571Z" fill="white"/>
</svg>
