<svg width="21" height="20" viewBox="0 0 21 20" fill="none" xmlns="http://www.w3.org/2000/svg">
<path d="M12.529 3.87688L13.1835 2.69602C13.1919 2.68089 13.1972 2.66426 13.1991 2.64708C13.2011 2.6299 13.1996 2.6125 13.1948 2.59588C13.1901 2.57926 13.1821 2.56375 13.1713 2.55022C13.1605 2.5367 13.1472 2.52543 13.132 2.51706C13.1169 2.50868 13.1003 2.50338 13.0831 2.50143C13.0659 2.49949 13.0485 2.50095 13.0319 2.50573C13.0153 2.51051 12.9998 2.51851 12.9862 2.52929C12.9727 2.54007 12.9614 2.5534 12.9531 2.56853L12.2917 3.76166C11.7272 3.51413 11.1174 3.38634 10.501 3.38634C9.88459 3.38634 9.27486 3.51413 8.71031 3.76166L8.04898 2.56853C8.03207 2.53779 8.00364 2.51503 7.96995 2.50525C7.93626 2.49546 7.90006 2.49947 7.86932 2.51637C7.83858 2.53328 7.81582 2.56171 7.80604 2.5954C7.79626 2.62909 7.80026 2.66529 7.81717 2.69602L8.47168 3.87688C7.84893 4.18402 7.32278 4.65671 6.95092 5.24312C6.57906 5.82953 6.37586 6.50701 6.3636 7.20127H14.6384C14.6261 6.50686 14.4226 5.82928 14.0505 5.24286C13.6784 4.65644 13.152 4.18383 12.529 3.87688ZM8.59168 5.68702C8.52328 5.68702 8.45642 5.66673 8.39957 5.62872C8.34271 5.59071 8.2984 5.53668 8.27226 5.47348C8.24612 5.41028 8.23931 5.34074 8.2527 5.27367C8.2661 5.2066 8.29909 5.14501 8.3475 5.09669C8.39591 5.04838 8.45756 5.01551 8.52466 5.00225C8.59176 4.98899 8.66128 4.99593 8.72443 5.0222C8.78758 5.04847 8.84152 5.09288 8.87942 5.14981C8.91732 5.20675 8.93748 5.27364 8.93734 5.34204C8.93716 5.4336 8.90066 5.52134 8.83586 5.58602C8.77105 5.6507 8.68324 5.68702 8.59168 5.68702ZM12.411 5.68702C12.3427 5.68702 12.2758 5.66673 12.2189 5.62872C12.1621 5.59071 12.1178 5.53668 12.0916 5.47348C12.0655 5.41028 12.0587 5.34074 12.0721 5.27367C12.0855 5.2066 12.1185 5.14501 12.1669 5.09669C12.2153 5.04838 12.2769 5.01551 12.344 5.00225C12.4111 4.98899 12.4806 4.99593 12.5438 5.0222C12.6069 5.04847 12.6609 5.09288 12.6988 5.14981C12.7367 5.20675 12.7568 5.27364 12.7567 5.34204C12.7565 5.4336 12.72 5.52134 12.6552 5.58602C12.5904 5.6507 12.5026 5.68702 12.411 5.68702ZM6.36223 13.5255C6.36206 13.6572 6.38786 13.7875 6.43817 13.9092C6.48848 14.0308 6.56231 14.1413 6.65542 14.2344C6.74853 14.3274 6.85909 14.4012 6.98076 14.4514C7.10244 14.5016 7.23283 14.5273 7.36446 14.5271H8.02784V16.5724C8.02784 16.8184 8.12557 17.0544 8.29952 17.2283C8.47347 17.4023 8.7094 17.5 8.95541 17.5C9.20142 17.5 9.43735 17.4023 9.6113 17.2283C9.78525 17.0544 9.88298 16.8184 9.88298 16.5724V14.5271H11.1197V16.5724C11.1197 16.8183 11.2174 17.0542 11.3913 17.2281C11.5652 17.402 11.8011 17.4997 12.047 17.4997C12.2929 17.4997 12.5287 17.402 12.7026 17.2281C12.8765 17.0542 12.9742 16.8183 12.9742 16.5724V14.5271H13.6383C13.7697 14.5272 13.8999 14.5013 14.0214 14.4511C14.1429 14.4008 14.2532 14.3271 14.3462 14.2341C14.4391 14.1412 14.5129 14.0308 14.5631 13.9093C14.6134 13.7879 14.6392 13.6577 14.6391 13.5262V7.52853H6.36223V13.5255ZM5.08934 7.36899C4.84342 7.36935 4.60768 7.46725 4.43385 7.64121C4.26002 7.81517 4.16229 8.05098 4.16211 8.2969V12.162C4.16211 12.2837 4.18609 12.4043 4.23269 12.5168C4.27929 12.6293 4.34759 12.7315 4.43369 12.8176C4.51979 12.9037 4.62201 12.972 4.7345 13.0186C4.847 13.0652 4.96757 13.0892 5.08934 13.0892C5.2111 13.0892 5.33168 13.0652 5.44417 13.0186C5.55667 12.972 5.65889 12.9037 5.74499 12.8176C5.83109 12.7315 5.89939 12.6293 5.94599 12.5168C5.99259 12.4043 6.01657 12.2837 6.01657 12.162V8.2969C6.01621 8.0511 5.9184 7.81546 5.74459 7.64165C5.57078 7.46784 5.33515 7.37003 5.08934 7.36967M15.9107 7.36967C15.6647 7.37003 15.429 7.46793 15.2552 7.64189C15.0813 7.81585 14.9836 8.05166 14.9834 8.29758V12.1626C14.9834 12.2844 15.0074 12.405 15.054 12.5175C15.1006 12.63 15.1689 12.7322 15.255 12.8183C15.3411 12.9044 15.4433 12.9727 15.5558 13.0193C15.6683 13.0659 15.7889 13.0899 15.9107 13.0899C16.0324 13.0899 16.153 13.0659 16.2655 13.0193C16.378 12.9727 16.4802 12.9044 16.5663 12.8183C16.6524 12.7322 16.7207 12.63 16.7673 12.5175C16.8139 12.405 16.8379 12.2844 16.8379 12.1626V8.2969C16.8375 8.0511 16.7397 7.81546 16.5659 7.64165C16.3921 7.46784 16.1565 7.37003 15.9107 7.36967Z" fill="#134F38"/>
</svg>
