<svg width="44" height="45" viewBox="0 0 44 45" fill="none" xmlns="http://www.w3.org/2000/svg">
<path d="M21.9558 3.14601C18.0363 3.14657 14.2108 4.34596 10.9926 6.58323C7.77438 8.8205 5.31747 11.9886 3.95157 15.6624C2.58567 19.3361 2.37614 23.3398 3.35109 27.1361C4.32605 30.9323 6.43884 34.3396 9.40594 36.9006C12.373 39.4615 16.0525 41.0537 19.9505 41.4634C23.8485 41.8731 27.7785 41.0807 31.2132 39.1926C34.6479 37.3044 37.423 34.4109 39.1659 30.9003C40.9088 27.3897 41.5363 23.4299 40.964 19.5525C40.9303 19.3208 40.8379 19.1017 40.6956 18.9158C40.5534 18.73 40.3659 18.5836 40.1511 18.4907C39.9363 18.3977 39.7013 18.3612 39.4684 18.3847C39.2355 18.4082 39.0125 18.4908 38.8206 18.6248C38.0681 19.1502 37.196 19.4785 36.2839 19.5797C35.3718 19.681 34.4489 19.5519 33.5996 19.2044C32.7503 18.8568 32.0016 18.3019 31.4222 17.5903C30.8427 16.8787 30.4509 16.0332 30.2825 15.1311C30.2316 14.8583 30.0992 14.6074 29.9027 14.4114C29.7062 14.2154 29.4549 14.0836 29.182 14.0333C28.279 13.8654 27.4326 13.4736 26.7202 12.8938C26.0079 12.3139 25.4525 11.5646 25.1049 10.7145C24.7572 9.86433 24.6285 8.94054 24.7304 8.02774C24.8323 7.11494 25.1617 6.2423 25.6883 5.48978C25.8216 5.2979 25.9037 5.07515 25.9269 4.84264C25.95 4.61013 25.9134 4.37557 25.8205 4.16117C25.7276 3.94678 25.5815 3.75966 25.396 3.61755C25.2105 3.47543 24.9918 3.38303 24.7606 3.3491C23.8319 3.21297 22.8945 3.14509 21.9558 3.14601ZM21.9558 24.4157C21.4099 24.4157 20.8863 24.1988 20.5003 23.8128C20.1143 23.4268 19.8974 22.9032 19.8974 22.3573C19.8974 21.8114 20.1143 21.2879 20.5003 20.9018C20.8863 20.5158 21.4099 20.299 21.9558 20.299C22.5017 20.299 23.0253 20.5158 23.4113 20.9018C23.7973 21.2879 24.0142 21.8114 24.0142 22.3573C24.0142 22.9032 23.7973 23.4268 23.4113 23.8128C23.0253 24.1988 22.5017 24.4157 21.9558 24.4157ZM16.4669 29.9046C16.4669 30.4505 16.25 30.9741 15.864 31.3601C15.478 31.7461 14.9544 31.963 14.4085 31.963C13.8626 31.963 13.339 31.7461 12.953 31.3601C12.567 30.9741 12.3501 30.4505 12.3501 29.9046C12.3501 29.3587 12.567 28.8352 12.953 28.4491C13.339 28.0631 13.8626 27.8463 14.4085 27.8463C14.9544 27.8463 15.478 28.0631 15.864 28.4491C16.25 28.8352 16.4669 29.3587 16.4669 29.9046ZM13.0363 19.6128C12.766 19.6128 12.4983 19.5596 12.2486 19.4562C11.9988 19.3527 11.7719 19.2011 11.5808 19.01C11.3897 18.8188 11.238 18.5919 11.1346 18.3422C11.0311 18.0925 10.9779 17.8248 10.9779 17.5545C10.9779 17.2842 11.0311 17.0165 11.1346 16.7668C11.238 16.5171 11.3897 16.2901 11.5808 16.099C11.7719 15.9079 11.9988 15.7563 12.2486 15.6528C12.4983 15.5494 12.766 15.4961 13.0363 15.4961C13.5822 15.4961 14.1057 15.713 14.4917 16.099C14.8778 16.485 15.0946 17.0086 15.0946 17.5545C15.0946 18.1004 14.8778 18.6239 14.4917 19.01C14.1057 19.396 13.5822 19.6128 13.0363 19.6128ZM28.817 31.2768C28.817 31.8228 28.6001 32.3463 28.2141 32.7323C27.8281 33.1183 27.3045 33.3352 26.7586 33.3352C26.2127 33.3352 25.6892 33.1183 25.3031 32.7323C24.9171 32.3463 24.7003 31.8228 24.7003 31.2768C24.7003 30.7309 24.9171 30.2074 25.3031 29.8214C25.6892 29.4354 26.2127 29.2185 26.7586 29.2185C27.3045 29.2185 27.8281 29.4354 28.2141 29.8214C28.6001 30.2074 28.817 30.7309 28.817 31.2768Z" fill="white"/>
</svg>
