<svg width="21" height="20" viewBox="0 0 21 20" fill="none" xmlns="http://www.w3.org/2000/svg">
<path d="M14.7108 16.8982C13.8943 17.6897 13.0027 17.5648 12.1445 17.1898C11.2363 16.8065 10.4031 16.7899 9.44484 17.1898C8.24499 17.7064 7.61174 17.5564 6.89516 16.8982C2.82901 12.707 3.42893 6.32452 8.04502 6.09121C9.16988 6.14954 9.95311 6.7078 10.6114 6.7578C11.5946 6.55782 12.5361 5.98289 13.586 6.05788C14.8442 6.15787 15.794 6.65781 16.419 7.55769C13.8193 9.11583 14.4359 12.5404 16.8189 13.4986C16.344 14.7485 15.7274 15.99 14.7025 16.9065L14.7108 16.8982ZM10.528 6.04122C10.4031 4.18312 11.9112 2.64998 13.6443 2.5C13.8859 4.64973 11.6946 6.24953 10.528 6.04122Z" fill="#134F38"/>
</svg>
